<?xml version="1.0" encoding="UTF-8" standalone="no"?>
<!-- Created with Inkscape (http://www.inkscape.org/) -->

<svg
   xmlns:dc="http://purl.org/dc/elements/1.1/"
   xmlns:cc="http://creativecommons.org/ns#"
   xmlns:rdf="http://www.w3.org/1999/02/22-rdf-syntax-ns#"
   xmlns:svg="http://www.w3.org/2000/svg"
   xmlns="http://www.w3.org/2000/svg"
   xmlns:sodipodi="http://sodipodi.sourceforge.net/DTD/sodipodi-0.dtd"
   xmlns:inkscape="http://www.inkscape.org/namespaces/inkscape"
   width="230"
   height="230"
   id="svg2"
   version="1.1"
   inkscape:version="0.48.4 r9939"
   inkscape:export-filename="C:\Users\Polaris\Documents\Art\Logos\github-icon.png"
   inkscape:export-xdpi="90"
   inkscape:export-ydpi="90"
   sodipodi:docname="GamealitionGithub.svg">
  <defs
     id="defs4">
    <filter
       inkscape:collect="always"
       id="filter3930">
      <feGaussianBlur
         inkscape:collect="always"
         stdDeviation="1.0889771"
         id="feGaussianBlur3932" />
    </filter>
    <filter
       inkscape:collect="always"
       id="filter3936">
      <feGaussianBlur
         inkscape:collect="always"
         stdDeviation="0.95487068"
         id="feGaussianBlur3938" />
    </filter>
  </defs>
  <sodipodi:namedview
     id="base"
     pagecolor="#ffffff"
     bordercolor="#666666"
     borderopacity="1.0"
     inkscape:pageopacity="0.0"
     inkscape:pageshadow="2"
     inkscape:zoom="1"
     inkscape:cx="115"
     inkscape:cy="115"
     inkscape:document-units="px"
     inkscape:current-layer="layer1"
     showgrid="false"
     inkscape:window-width="1002"
     inkscape:window-height="673"
     inkscape:window-x="537"
     inkscape:window-y="178"
     inkscape:window-maximized="0"
     inkscape:snap-page="false"
     inkscape:snap-bbox="false"
     inkscape:object-nodes="true" />
  <metadata
     id="metadata7">
    <rdf:RDF>
      <cc:Work
         rdf:about="">
        <dc:format>image/svg+xml</dc:format>
        <dc:type
           rdf:resource="http://purl.org/dc/dcmitype/StillImage" />
        <dc:title></dc:title>
      </cc:Work>
    </rdf:RDF>
  </metadata>
  <g
     inkscape:label="Layer 1"
     inkscape:groupmode="layer"
     id="layer1"
     transform="translate(0,-822.36218)">
    <rect
       style="fill:#2390cb;fill-opacity:1;stroke:#ffda39;stroke-width:0;stroke-miterlimit:4;stroke-opacity:1;stroke-dasharray:none"
       id="rect2985"
       width="230"
       height="230"
       x="2.5658662e-009"
       y="822.36218" />
    <rect
       style="fill:none;fill-opacity:1;stroke:#000000;stroke-width:2.02606939999999990;stroke-miterlimit:4;stroke-opacity:0.50196081;stroke-dasharray:none;filter:url(#filter3930)"
       id="rect3920"
       width="217.79543"
       height="217.79543"
       x="6.1022825"
       y="828.46448" />
    <rect
       y="829.86566"
       x="7.5034614"
       height="214.99307"
       width="214.99307"
       id="rect3768"
       style="fill:#2390cb;fill-opacity:1;stroke:#dcdcdc;stroke-width:2;stroke-miterlimit:4;stroke-opacity:1;stroke-dasharray:none" />
    <g
       id="g3894"
       style="stroke:#ffffff;stroke-opacity:0.47340426">
      <g
         id="g3792"
         style="stroke:#ffffff;stroke-opacity:0.47340426">
        <path
           style="fill:none;stroke:#ffffff;stroke-width:1;stroke-linecap:butt;stroke-linejoin:miter;stroke-opacity:0.47340426;stroke-miterlimit:4;stroke-dasharray:2, 4;stroke-dashoffset:0"
           d="m 27.503461,829.86566 0,214.99304"
           id="path3772"
           inkscape:connector-curvature="0" />
        <path
           inkscape:connector-curvature="0"
           id="path3774"
           d="m 47.503461,829.86566 0,214.99304"
           style="fill:none;stroke:#ffffff;stroke-width:1;stroke-linecap:butt;stroke-linejoin:miter;stroke-miterlimit:4;stroke-opacity:0.47340426;stroke-dasharray:2, 4;stroke-dashoffset:0" />
        <path
           style="fill:none;stroke:#ffffff;stroke-width:1;stroke-linecap:butt;stroke-linejoin:miter;stroke-miterlimit:4;stroke-opacity:0.47340426;stroke-dasharray:2, 4;stroke-dashoffset:0"
           d="m 67.503461,829.86566 0,214.99304"
           id="path3776"
           inkscape:connector-curvature="0" />
        <path
           inkscape:connector-curvature="0"
           id="path3778"
           d="m 87.503461,829.86566 0,214.99304"
           style="fill:none;stroke:#ffffff;stroke-width:1;stroke-linecap:butt;stroke-linejoin:miter;stroke-miterlimit:4;stroke-opacity:0.47340426;stroke-dasharray:2, 4;stroke-dashoffset:0" />
        <path
           style="fill:none;stroke:#ffffff;stroke-width:1;stroke-linecap:butt;stroke-linejoin:miter;stroke-miterlimit:4;stroke-opacity:0.47340426;stroke-dasharray:2, 4;stroke-dashoffset:0"
           d="m 107.50346,829.86566 0,214.99304"
           id="path3780"
           inkscape:connector-curvature="0" />
        <path
           inkscape:connector-curvature="0"
           id="path3782"
           d="m 127.50346,829.86566 0,214.99304"
           style="fill:none;stroke:#ffffff;stroke-width:1;stroke-linecap:butt;stroke-linejoin:miter;stroke-miterlimit:4;stroke-opacity:0.47340426;stroke-dasharray:2, 4;stroke-dashoffset:0" />
        <path
           style="fill:none;stroke:#ffffff;stroke-width:1;stroke-linecap:butt;stroke-linejoin:miter;stroke-miterlimit:4;stroke-opacity:0.47340426;stroke-dasharray:2, 4;stroke-dashoffset:0"
           d="m 147.50346,829.86566 0,214.99304"
           id="path3784"
           inkscape:connector-curvature="0" />
        <path
           inkscape:connector-curvature="0"
           id="path3786"
           d="m 167.50346,829.86566 0,214.99304"
           style="fill:none;stroke:#ffffff;stroke-width:1;stroke-linecap:butt;stroke-linejoin:miter;stroke-miterlimit:4;stroke-opacity:0.47340426;stroke-dasharray:2, 4;stroke-dashoffset:0" />
        <path
           style="fill:none;stroke:#ffffff;stroke-width:1;stroke-linecap:butt;stroke-linejoin:miter;stroke-miterlimit:4;stroke-opacity:0.47340426;stroke-dasharray:2, 4;stroke-dashoffset:0"
           d="m 187.50346,829.86566 0,214.99304"
           id="path3788"
           inkscape:connector-curvature="0" />
        <path
           inkscape:connector-curvature="0"
           id="path3790"
           d="m 207.50346,829.86566 0,214.99304"
           style="fill:none;stroke:#ffffff;stroke-width:1;stroke-linecap:butt;stroke-linejoin:miter;stroke-miterlimit:4;stroke-opacity:0.47340426;stroke-dasharray:2, 4;stroke-dashoffset:0" />
      </g>
      <g
         transform="matrix(0,1,-1,0,1052.8656,819.85872)"
         id="g3804"
         style="stroke:#ffffff;stroke-opacity:0.47340426">
        <path
           inkscape:connector-curvature="0"
           id="path3806"
           d="m 27.503461,829.86566 0,214.99304"
           style="fill:none;stroke:#ffffff;stroke-width:1;stroke-linecap:butt;stroke-linejoin:miter;stroke-miterlimit:4;stroke-opacity:0.47340426;stroke-dasharray:2, 4;stroke-dashoffset:0" />
        <path
           style="fill:none;stroke:#ffffff;stroke-width:1;stroke-linecap:butt;stroke-linejoin:miter;stroke-miterlimit:4;stroke-opacity:0.47340426;stroke-dasharray:2, 4;stroke-dashoffset:0"
           d="m 47.503461,829.86566 0,214.99304"
           id="path3808"
           inkscape:connector-curvature="0" />
        <path
           inkscape:connector-curvature="0"
           id="path3810"
           d="m 67.503461,829.86566 0,214.99304"
           style="fill:none;stroke:#ffffff;stroke-width:1;stroke-linecap:butt;stroke-linejoin:miter;stroke-miterlimit:4;stroke-opacity:0.47340426;stroke-dasharray:2, 4;stroke-dashoffset:0" />
        <path
           style="fill:none;stroke:#ffffff;stroke-width:1;stroke-linecap:butt;stroke-linejoin:miter;stroke-miterlimit:4;stroke-opacity:0.47340426;stroke-dasharray:2, 4;stroke-dashoffset:0"
           d="m 87.503461,829.86566 0,214.99304"
           id="path3812"
           inkscape:connector-curvature="0" />
        <path
           inkscape:connector-curvature="0"
           id="path3814"
           d="m 107.50346,829.86566 0,214.99304"
           style="fill:none;stroke:#ffffff;stroke-width:1;stroke-linecap:butt;stroke-linejoin:miter;stroke-miterlimit:4;stroke-opacity:0.47340426;stroke-dasharray:2, 4;stroke-dashoffset:0" />
        <path
           style="fill:none;stroke:#ffffff;stroke-width:1;stroke-linecap:butt;stroke-linejoin:miter;stroke-miterlimit:4;stroke-opacity:0.47340426;stroke-dasharray:2, 4;stroke-dashoffset:0"
           d="m 127.50346,829.86566 0,214.99304"
           id="path3816"
           inkscape:connector-curvature="0" />
        <path
           inkscape:connector-curvature="0"
           id="path3818"
           d="m 147.50346,829.86566 0,214.99304"
           style="fill:none;stroke:#ffffff;stroke-width:1;stroke-linecap:butt;stroke-linejoin:miter;stroke-miterlimit:4;stroke-opacity:0.47340426;stroke-dasharray:2, 4;stroke-dashoffset:0" />
        <path
           style="fill:none;stroke:#ffffff;stroke-width:1;stroke-linecap:butt;stroke-linejoin:miter;stroke-miterlimit:4;stroke-opacity:0.47340426;stroke-dasharray:2, 4;stroke-dashoffset:0"
           d="m 167.50346,829.86566 0,214.99304"
           id="path3820"
           inkscape:connector-curvature="0" />
        <path
           inkscape:connector-curvature="0"
           id="path3822"
           d="m 187.50346,829.86566 0,214.99304"
           style="fill:none;stroke:#ffffff;stroke-width:1;stroke-linecap:butt;stroke-linejoin:miter;stroke-miterlimit:4;stroke-opacity:0.47340426;stroke-dasharray:2, 4;stroke-dashoffset:0" />
        <path
           style="fill:none;stroke:#ffffff;stroke-width:1;stroke-linecap:butt;stroke-linejoin:miter;stroke-miterlimit:4;stroke-opacity:0.47340426;stroke-dasharray:2, 4;stroke-dashoffset:0"
           d="m 207.50346,829.86566 0,214.99304"
           id="path3824"
           inkscape:connector-curvature="0" />
      </g>
    </g>
    <path
       inkscape:connector-curvature="0"
       id="path3934"
       d="m 182.49512,836.84948 -7.29981,0.1123 -104.780271,0.33691 -3.59375,0.11231 -2.133789,2.80762 -38.632812,50.76172 -1.459961,2.02148 0,2.3584 0,87.37305 0,1.68457 0.673828,1.45996 21.33789,43.0127 1.90918,3.9307 4.267578,0.1123 126.118167,4.8291 3.93066,0.1123 2.24609,-3.2569 19.0918,-27.8515 1.34766,-2.0215 -0.11231,-2.3584 -3.48144,-67.83205 -0.33692,-6.85058 -6.85058,0 -72.77344,0.44922 -8.87207,0.1123 1.90918,8.64746 4.94141,21.67481 -8.08594,0.56152 0,-44.24805 62.55371,0 7.07519,0 0.11231,-7.07519 0.78613,-63.67676 0.11231,-7.2998 z m -3.59375,3.59375 -0.11231,3.70605 -0.78613,63.67676 -0.11231,3.48144 -3.48144,0 -66.14746,0 0,51.77247 16.05957,-1.12305 -5.83984,-25.83008 -0.89844,-4.37988 4.49219,0 72.66113,-0.44922 3.48144,0 0.11231,3.48144 3.48144,67.71974 0.11231,1.2353 -0.67383,1.0108 -19.0918,27.8515 -1.12304,1.5723 -2.02149,0 -126.118162,-4.8291 -2.133789,-0.1123 -1.010742,-1.9092 -21.225586,-43.01267 -0.336914,-0.78613 0,-0.78613 0,-87.37305 0,-1.23535 0.673828,-0.89844 38.632812,-50.87402 1.123047,-1.34766 1.796875,-0.11231 104.780271,-0.33691 3.70606,-0.1123 z m -7.29981,7.2998 -99.389646,0.33691 -36.835937,48.51563 0,85.46387 19.877929,40.20506 121.962894,4.6045 17.29492,-25.1562 -3.14453,-63.22758 -64.79981,0.44922 5.72754,25.49316 0.89844,4.04297 -4.15527,0.33691 -24.14551,1.68458 -3.81836,0.2246 0,-3.81835 0,-59.18458 0,-3.59375 3.59375,0 66.14746,0 0.78613,-56.37695 z m -3.70605,3.59375 -0.56153,49.18945 -62.66601,0 -7.187501,0 0,7.1875 0,59.18458 0,7.74902 7.749021,-0.56152 24.03321,-1.79688 8.31054,-0.56152 -1.79687,-8.08594 -4.8291,-21.11328 57.05078,-0.44922 3.03222,58.51073 -15.61035,22.6856 -117.807615,-4.6045 -18.642578,-37.5098 0,-83.33008 35.039062,-46.15723 93.886721,-0.33691 z"
       style="font-size:medium;font-style:normal;font-variant:normal;font-weight:normal;font-stretch:normal;text-indent:0;text-align:start;text-decoration:none;line-height:normal;letter-spacing:normal;word-spacing:normal;text-transform:none;direction:ltr;block-progression:tb;writing-mode:lr-tb;text-anchor:start;baseline-shift:baseline;color:#000000;fill:none;fill-opacity:1;stroke:#000000;stroke-width:4;marker:none;visibility:visible;display:inline;overflow:visible;enable-background:accumulate;font-family:Sans;-inkscape-font-specification:Sans;filter:url(#filter3936);stroke-opacity:0.50196081000000004" />
    <path
       style="fill:#2390cb;stroke:none;stroke-width:1px;stroke-linecap:butt;stroke-linejoin:miter;stroke-opacity:1;fill-opacity:1"
       d="m 117.58301,109.38476 84.0039,-4.04297 0.33692,76.03023 -19.0918,34.1407 -132.070311,-8.6475 -26.166992,-44.80956 3.59375,-90.29297 40.429687,-53.12012 110.283206,-0.56152 -1.01075,70.86425 -69.6289,0 3.59375,47.8418 12.46582,2.80762 z"
       id="path3918"
       inkscape:connector-curvature="0"
       transform="translate(0,822.36218)" />
    <path
       style="font-size:medium;font-style:normal;font-variant:normal;font-weight:normal;font-stretch:normal;text-indent:0;text-align:start;text-decoration:none;line-height:normal;letter-spacing:normal;word-spacing:normal;text-transform:none;direction:ltr;block-progression:tb;writing-mode:lr-tb;text-anchor:start;baseline-shift:baseline;color:#000000;fill:#ffffff;fill-opacity:1;stroke:none;stroke-width:4;marker:none;visibility:visible;display:inline;overflow:visible;enable-background:accumulate;font-family:Sans;-inkscape-font-specification:Sans"
       d="m 182.49512,836.84948 -7.29981,0.1123 -104.780271,0.33691 -3.59375,0.11231 -2.133789,2.80762 -38.632812,50.76172 -1.459961,2.02148 0,2.3584 0,87.37305 0,1.68457 0.673828,1.45996 21.33789,43.0127 1.90918,3.9307 4.267578,0.1123 126.118167,4.8291 3.93066,0.1123 2.24609,-3.2569 19.0918,-27.8515 1.34766,-2.0215 -0.11231,-2.3584 -3.48144,-67.83205 -0.33692,-6.85058 -6.85058,0 -72.77344,0.44922 -8.87207,0.1123 1.90918,8.64746 4.94141,21.67481 -8.08594,0.56152 0,-44.24805 62.55371,0 7.07519,0 0.11231,-7.07519 0.78613,-63.67676 0.11231,-7.2998 z m -3.59375,3.59375 -0.11231,3.70605 -0.78613,63.67676 -0.11231,3.48144 -3.48144,0 -66.14746,0 0,51.77247 16.05957,-1.12305 -5.83984,-25.83008 -0.89844,-4.37988 4.49219,0 72.66113,-0.44922 3.48144,0 0.11231,3.48144 3.48144,67.71974 0.11231,1.2353 -0.67383,1.0108 -19.0918,27.8515 -1.12304,1.5723 -2.02149,0 -126.118162,-4.8291 -2.133789,-0.1123 -1.010742,-1.9092 -21.225586,-43.01267 -0.336914,-0.78613 0,-0.78613 0,-87.37305 0,-1.23535 0.673828,-0.89844 38.632812,-50.87402 1.123047,-1.34766 1.796875,-0.11231 104.780271,-0.33691 3.70606,-0.1123 z m -7.29981,7.2998 -99.389646,0.33691 -36.835937,48.51563 0,85.46387 19.877929,40.20506 121.962894,4.6045 17.29492,-25.1562 -3.14453,-63.22758 -64.79981,0.44922 5.72754,25.49316 0.89844,4.04297 -4.15527,0.33691 -24.14551,1.68458 -3.81836,0.2246 0,-3.81835 0,-59.18458 0,-3.59375 3.59375,0 66.14746,0 0.78613,-56.37695 z m -3.70605,3.59375 -0.56153,49.18945 -62.66601,0 -7.187501,0 0,7.1875 0,59.18458 0,7.74902 7.749021,-0.56152 24.03321,-1.79688 8.31054,-0.56152 -1.79687,-8.08594 -4.8291,-21.11328 57.05078,-0.44922 3.03222,58.51073 -15.61035,22.6856 -117.807615,-4.6045 -18.642578,-37.5098 0,-83.33008 35.039062,-46.15723 93.886721,-0.33691 z"
       id="path3757"
       inkscape:connector-curvature="0" />
  </g>
</svg>
